<!-- icon666.com - MILLIONS vector ICONS FREE --><svg viewBox="0 -63 480 479" xmlns="http://www.w3.org/2000/svg"><path d="m416 32.5c0-4.417969-3.582031-8-8-8h-48c-4.417969 0-8 3.582031-8 8v24h64zm0 0" fill="#bddbff" style="fill: rgb(113, 176, 255);"></path><path d="m456 56.5h-184l-16-48h-112l-16 48h-104c-8.835938 0-16 7.164062-16 16v256c0 8.835938 7.164062 16 16 16h432c8.835938 0 16-7.164062 16-16v-256c0-8.835938-7.164062-16-16-16zm-56 96c0 8.835938-7.164062 16-16 16s-16-7.164062-16-16 7.164062-16 16-16 16 7.164062 16 16zm-240-112h80v48h-80zm152 208v64h-272v-192h272zm72 48c-22.089844 0-40-17.910156-40-40s17.910156-40 40-40 40 17.910156 40 40-17.910156 40-40 40zm0 0" fill="#bddbff" style="fill: rgb(113, 176, 255);"></path><path d="m176 168.5c0 8.835938-7.164062 16-16 16s-16-7.164062-16-16 7.164062-16 16-16 16 7.164062 16 16zm0 0" fill="#bddbff" style="fill: rgb(113, 176, 255);"></path><path d="m120 232.5-80 80h160zm0 0" fill="#bddbff" style="fill: rgb(113, 176, 255);"></path><path d="m160 272.5 40 40h112v-64l-64-64zm0 0" fill="#bddbff" style="fill: rgb(113, 176, 255);"></path><g fill="#3d9ae2"><path d="m384 208.5c-26.507812 0-48 21.492188-48 48s21.492188 48 48 48 48-21.492188 48-48c-.027344-26.5-21.5-47.972656-48-48zm0 80c-17.671875 0-32-14.328125-32-32s14.328125-32 32-32 32 14.328125 32 32-14.328125 32-32 32zm0 0" fill="#3d9ae2" style="fill: rgb(26, 108, 170);"></path><path d="m360 152.5c0 13.253906 10.746094 24 24 24s24-10.746094 24-24-10.746094-24-24-24-24 10.746094-24 24zm32 0c0 4.417969-3.582031 8-8 8s-8-3.582031-8-8 3.582031-8 8-8 8 3.582031 8 8zm0 0" fill="#3d9ae2" style="fill: rgb(26, 108, 170);"></path><path d="m352 80.5h64v16h-64zm0 0" fill="#3d9ae2" style="fill: rgb(26, 108, 170);"></path><path d="m312 112.5h-272c-4.417969 0-8 3.582031-8 8v192c0 .105469.054688.191406.054688.296875.023437.945313.210937 1.882813.554687 2.765625 0 .066406.078125.113281.109375.183594.359375.785156.84375 1.503906 1.433594 2.128906.195312.199219.398437.382812.617187.554688.5.445312 1.0625.820312 1.664063 1.117187.242187.136719.496094.257813.757812.359375.890625.371094 1.84375.570312 2.808594.59375h272c4.417969 0 8-3.582031 8-8v-192c0-4.417969-3.582031-8-8-8zm-8 16v100.6875l-50.34375-50.34375c-3.125-3.121094-8.1875-3.121094-11.3125 0l-82.34375 82.34375-34.34375-34.34375c-3.125-3.121094-8.1875-3.121094-11.3125 0l-66.34375 66.34375v-164.6875zm-244.6875 176 60.6875-60.6875 60.6875 60.6875zm244.6875 0h-100.6875l-32-32 76.6875-76.6875 56 56zm0 0" fill="#3d9ae2" style="fill: rgb(26, 108, 170);"></path><path d="m456 48.5h-32v-16c0-8.835938-7.164062-16-16-16h-48c-8.835938 0-16 7.164062-16 16v16h-66.230469l-14.175781-42.527344c-1.089844-3.269531-4.148438-5.472656-7.59375-5.472656h-112c-3.445312 0-6.503906 2.203125-7.59375 5.472656l-14.175781 42.527344h-98.230469c-13.253906 0-24 10.746094-24 24v256c0 13.253906 10.746094 24 24 24h432c13.253906 0 24-10.746094 24-24v-256c0-13.253906-10.746094-24-24-24zm-96-16h48v16h-48zm104 296c0 4.417969-3.582031 8-8 8h-432c-4.417969 0-8-3.582031-8-8v-256c0-4.417969 3.582031-8 8-8h104c3.445312 0 6.503906-2.203125 7.59375-5.472656l14.175781-42.527344h100.460938l14.175781 42.527344c1.089844 3.269531 4.148438 5.472656 7.59375 5.472656h184c4.417969 0 8 3.582031 8 8zm0 0" fill="#3d9ae2" style="fill: rgb(26, 108, 170);"></path><path d="m160 96.5h80c4.417969 0 8-3.582031 8-8v-48c0-4.417969-3.582031-8-8-8h-80c-4.417969 0-8 3.582031-8 8v48c0 4.417969 3.582031 8 8 8zm8-48h64v32h-64zm0 0" fill="#3d9ae2" style="fill: rgb(26, 108, 170);"></path><path d="m160 192.5c13.253906 0 24-10.746094 24-24s-10.746094-24-24-24-24 10.746094-24 24 10.746094 24 24 24zm0-32c4.417969 0 8 3.582031 8 8s-3.582031 8-8 8-8-3.582031-8-8 3.582031-8 8-8zm0 0" fill="#3d9ae2" style="fill: rgb(26, 108, 170);"></path></g></svg>